# xmcd
#
# Track frame offsets:
#	150
#	14118
#	25204
#	43827
#	63251
#	74578
#	85813
#	98296
#	109733
#	119085
#	134960
#	145325
#	159628
#	171424
#	178216
#
# Disc length: 2502 seconds
#
# Revision: 1
# Processed by: cddbd v1.5.2PL0 Copyright (c) Steve Scherf et al.
# Submitted via: audiograbber 1.83.01
#
DISCID=e509c40f
DTITLE=Various Artist - 30 Country Hits [CD2)
DYEAR=1900
DGENRE=
TTITLE0=John Denver - Take Me Home Country Roads
TTITLE1=Johnny Cash - Oh Lonesome Me
TTITLE2=Kris Kristofferson - A Moment Of Forever
TTITLE3=Tanya Tucker - Delta Down
TTITLE4=Don Gibson - Sea Of Heartbreak
TTITLE5=Patry Cline - Just Out Of Reach
TTITLE6=Sonny James - Runnung Bear
TTITLE7=Don Williams and The Pozo Sec - Storybook Children
TTITLE8=Frank Ifield - I Remember You
TTITLE9=Connie Francis - It Does'nt Matter Anymore
TTITLE10=Ferlin Husky - Wings Of A Dove
TTITLE11=Emmylou Harris - High Powered Love
TTITLE12="Tennessee" Ernie Ford - Sixteen Tons
TTITLE13=Waylon Jennings - It's So Easy (To Fall In Love)
TTITLE14=Billy Swan - I Can Help
EXTD=
EXTT0=
EXTT1=
EXTT2=
EXTT3=
EXTT4=
EXTT5=
EXTT6=
EXTT7=
EXTT8=
EXTT9=
EXTT10=
EXTT11=
EXTT12=
EXTT13=
EXTT14=
PLAYORDER=
